{
	"asset":{
		"generator":"Khronos glTF Blender I/O v4.2.70",
		"version":"2.0"
	},
	"extensionsUsed":[
		"KHR_materials_emissive_strength"
	],
	"scene":0,
	"scenes":[
		{
			"name":"Scene",
			"nodes":[
				0
			]
		}
	],
	"nodes":[
		{
			"mesh":0,
			"name":"VoxelStarFighter",
			"translation":[
				-0.5,
				-3,
				1
			]
		}
	],
	"materials":[
		{
			"doubleSided":true,
			"name":"Body",
			"pbrMetallicRoughness":{
				"baseColorFactor":[
					0.25,
					0.30000001192092896,
					0.3799999952316284,
					1
				],
				"metallicFactor":0.5,
				"roughnessFactor":0.30000001192092896
			}
		},
		{
			"doubleSided":true,
			"name":"BodyDetail",
			"pbrMetallicRoughness":{
				"baseColorFactor":[
					0.20000000298023224,
					0.25,
					0.3199999928474426,
					1
				],
				"metallicFactor":0.6000000238418579,
				"roughnessFactor":0.25
			}
		},
		{
			"doubleSided":true,
			"name":"Cockpit",
			"pbrMetallicRoughness":{
				"baseColorFactor":[
					0.05000000074505806,
					0.07999999821186066,
					0.11999999731779099,
					1
				],
				"metallicFactor":0.8999999761581421,
				"roughnessFactor":0.10000000149011612
			}
		},
		{
			"doubleSided":true,
			"name":"Accent",
			"pbrMetallicRoughness":{
				"baseColorFactor":[
					0.949999988079071,
					0.4000000059604645,
					0.05000000074505806,
					1
				],
				"metallicFactor":0.4000000059604645,
				"roughnessFactor":0.4000000059604645
			}
		},
		{
			"doubleSided":true,
			"name":"Weapon",
			"pbrMetallicRoughness":{
				"baseColorFactor":[
					0.6000000238418579,
					0.6000000238418579,
					0.6499999761581421,
					1
				],
				"metallicFactor":0.8999999761581421,
				"roughnessFactor":0.20000000298023224
			}
		},
		{
			"doubleSided":true,
			"emissiveFactor":[
				0.20000000298023224,
				0.6000000238418579,
				1
			],
			"extensions":{
				"KHR_materials_emissive_strength":{
					"emissiveStrength":2
				}
			},
			"name":"EngineGlow",
			"pbrMetallicRoughness":{
				"baseColorFactor":[
					0,
					0,
					0,
					1
				],
				"metallicFactor":0.30000001192092896,
				"roughnessFactor":0.4000000059604645
			}
		},
		{
			"doubleSided":true,
			"name":"Engine",
			"pbrMetallicRoughness":{
				"baseColorFactor":[
					0.05000000074505806,
					0.3499999940395355,
					0.949999988079071,
					1
				],
				"metallicFactor":0.800000011920929,
				"roughnessFactor":0.20000000298023224
			}
		}
	],
	"meshes":[
		{
			"name":"Cube.001",
			"primitives":[
				{
					"attributes":{
						"POSITION":0,
						"NORMAL":1,
						"TEXCOORD_0":2
					},
					"indices":3,
					"material":0
				},
				{
					"attributes":{
						"POSITION":4,
						"NORMAL":5,
						"TEXCOORD_0":6
					},
					"indices":7,
					"material":1
				},
				{
					"attributes":{
						"POSITION":8,
						"NORMAL":9,
						"TEXCOORD_0":10
					},
					"indices":11,
					"material":2
				},
				{
					"attributes":{
						"POSITION":12,
						"NORMAL":13,
						"TEXCOORD_0":14
					},
					"indices":7,
					"material":3
				},
				{
					"attributes":{
						"POSITION":15,
						"NORMAL":16,
						"TEXCOORD_0":17
					},
					"indices":18,
					"material":4
				},
				{
					"attributes":{
						"POSITION":19,
						"NORMAL":20,
						"TEXCOORD_0":21
					},
					"indices":22,
					"material":5
				},
				{
					"attributes":{
						"POSITION":23,
						"NORMAL":24,
						"TEXCOORD_0":25
					},
					"indices":26,
					"material":6
				}
			]
		}
	],
	"accessors":[
		{
			"bufferView":0,
			"componentType":5126,
			"count":13920,
			"max":[
				2.990000009536743,
				7.239999771118164,
				0.23999999463558197
			],
			"min":[
				-1.9900000095367432,
				-0.23999999463558197,
				-2.240000009536743
			],
			"type":"VEC3"
		},
		{
			"bufferView":1,
			"componentType":5126,
			"count":13920,
			"type":"VEC3"
		},
		{
			"bufferView":2,
			"componentType":5126,
			"count":13920,
			"type":"VEC2"
		},
		{
			"bufferView":3,
			"componentType":5123,
			"count":20880,
			"type":"SCALAR"
		},
		{
			"bufferView":4,
			"componentType":5126,
			"count":792,
			"max":[
				1.2400000095367432,
				4.239999771118164,
				0.23999999463558197
			],
			"min":[
				-0.23999999463558197,
				1.0750000476837158,
				-2.240000009536743
			],
			"type":"VEC3"
		},
		{
			"bufferView":5,
			"componentType":5126,
			"count":792,
			"type":"VEC3"
		},
		{
			"bufferView":6,
			"componentType":5126,
			"count":792,
			"type":"VEC2"
		},
		{
			"bufferView":7,
			"componentType":5123,
			"count":1188,
			"type":"SCALAR"
		},
		{
			"bufferView":8,
			"componentType":5126,
			"count":216,
			"max":[
				1.2400000095367432,
				5.739999771118164,
				-0.25999999046325684
			],
			"min":[
				-0.23999999463558197,
				5.260000228881836,
				-1.7400000095367432
			],
			"type":"VEC3"
		},
		{
			"bufferView":9,
			"componentType":5126,
			"count":216,
			"type":"VEC3"
		},
		{
			"bufferView":10,
			"componentType":5126,
			"count":216,
			"type":"VEC2"
		},
		{
			"bufferView":11,
			"componentType":5123,
			"count":324,
			"type":"SCALAR"
		},
		{
			"bufferView":12,
			"componentType":5126,
			"count":792,
			"max":[
				2.990000009536743,
				6.400000095367432,
				-0.6000000238418579
			],
			"min":[
				-1.9900000095367432,
				1.5099999904632568,
				-1.9900000095367432
			],
			"type":"VEC3"
		},
		{
			"bufferView":13,
			"componentType":5126,
			"count":792,
			"type":"VEC3"
		},
		{
			"bufferView":14,
			"componentType":5126,
			"count":792,
			"type":"VEC2"
		},
		{
			"bufferView":15,
			"componentType":5126,
			"count":384,
			"max":[
				2.875,
				4.375,
				-0.7250000238418579
			],
			"min":[
				-1.875,
				3.375,
				-1.274999976158142
			],
			"type":"VEC3"
		},
		{
			"bufferView":16,
			"componentType":5126,
			"count":384,
			"type":"VEC3"
		},
		{
			"bufferView":17,
			"componentType":5126,
			"count":384,
			"type":"VEC2"
		},
		{
			"bufferView":18,
			"componentType":5123,
			"count":576,
			"type":"SCALAR"
		},
		{
			"bufferView":19,
			"componentType":5126,
			"count":288,
			"max":[
				1.4900000095367432,
				0.9900000095367432,
				-0.5099999904632568
			],
			"min":[
				-0.49000000953674316,
				0.44999998807907104,
				-1.4900000095367432
			],
			"type":"VEC3"
		},
		{
			"bufferView":20,
			"componentType":5126,
			"count":288,
			"type":"VEC3"
		},
		{
			"bufferView":21,
			"componentType":5126,
			"count":288,
			"type":"VEC2"
		},
		{
			"bufferView":22,
			"componentType":5123,
			"count":432,
			"type":"SCALAR"
		},
		{
			"bufferView":23,
			"componentType":5126,
			"count":720,
			"max":[
				1.4900000095367432,
				1.7400000095367432,
				-0.25999999046325684
			],
			"min":[
				-0.49000000953674316,
				0.7599999904632568,
				-1.7400000095367432
			],
			"type":"VEC3"
		},
		{
			"bufferView":24,
			"componentType":5126,
			"count":720,
			"type":"VEC3"
		},
		{
			"bufferView":25,
			"componentType":5126,
			"count":720,
			"type":"VEC2"
		},
		{
			"bufferView":26,
			"componentType":5123,
			"count":1080,
			"type":"SCALAR"
		}
	],
	"bufferViews":[
		{
			"buffer":0,
			"byteLength":167040,
			"byteOffset":0,
			"target":34962
		},
		{
			"buffer":0,
			"byteLength":167040,
			"byteOffset":167040,
			"target":34962
		},
		{
			"buffer":0,
			"byteLength":111360,
			"byteOffset":334080,
			"target":34962
		},
		{
			"buffer":0,
			"byteLength":41760,
			"byteOffset":445440,
			"target":34963
		},
		{
			"buffer":0,
			"byteLength":9504,
			"byteOffset":487200,
			"target":34962
		},
		{
			"buffer":0,
			"byteLength":9504,
			"byteOffset":496704,
			"target":34962
		},
		{
			"buffer":0,
			"byteLength":6336,
			"byteOffset":506208,
			"target":34962
		},
		{
			"buffer":0,
			"byteLength":2376,
			"byteOffset":512544,
			"target":34963
		},
		{
			"buffer":0,
			"byteLength":2592,
			"byteOffset":514920,
			"target":34962
		},
		{
			"buffer":0,
			"byteLength":2592,
			"byteOffset":517512,
			"target":34962
		},
		{
			"buffer":0,
			"byteLength":1728,
			"byteOffset":520104,
			"target":34962
		},
		{
			"buffer":0,
			"byteLength":648,
			"byteOffset":521832,
			"target":34963
		},
		{
			"buffer":0,
			"byteLength":9504,
			"byteOffset":522480,
			"target":34962
		},
		{
			"buffer":0,
			"byteLength":9504,
			"byteOffset":531984,
			"target":34962
		},
		{
			"buffer":0,
			"byteLength":6336,
			"byteOffset":541488,
			"target":34962
		},
		{
			"buffer":0,
			"byteLength":4608,
			"byteOffset":547824,
			"target":34962
		},
		{
			"buffer":0,
			"byteLength":4608,
			"byteOffset":552432,
			"target":34962
		},
		{
			"buffer":0,
			"byteLength":3072,
			"byteOffset":557040,
			"target":34962
		},
		{
			"buffer":0,
			"byteLength":1152,
			"byteOffset":560112,
			"target":34963
		},
		{
			"buffer":0,
			"byteLength":3456,
			"byteOffset":561264,
			"target":34962
		},
		{
			"buffer":0,
			"byteLength":3456,
			"byteOffset":564720,
			"target":34962
		},
		{
			"buffer":0,
			"byteLength":2304,
			"byteOffset":568176,
			"target":34962
		},
		{
			"buffer":0,
			"byteLength":864,
			"byteOffset":570480,
			"target":34963
		},
		{
			"buffer":0,
			"byteLength":8640,
			"byteOffset":571344,
			"target":34962
		},
		{
			"buffer":0,
			"byteLength":8640,
			"byteOffset":579984,
			"target":34962
		},
		{
			"buffer":0,
			"byteLength":5760,
			"byteOffset":588624,
			"target":34962
		},
		{
			"buffer":0,
			"byteLength":2160,
			"byteOffset":594384,
			"target":34963
		}
	],
	"buffers":[
		{
			"byteLength":596544,
			"uri":"starfighter.bin"
		}
	]
}
