{
	"asset":{
		"generator":"Khronos glTF Blender I/O v4.2.70",
		"version":"2.0"
	},
	"extensionsUsed":[
		"KHR_materials_emissive_strength"
	],
	"scene":0,
	"scenes":[
		{
			"name":"Scene",
			"nodes":[
				0,
				1,
				2,
				3,
				4,
				5,
				6,
				7,
				8,
				9,
				10,
				11,
				12,
				13,
				14,
				15,
				16,
				17,
				18,
				19,
				20
			]
		}
	],
	"nodes":[
		{
			"mesh":0,
			"name":"REF_Fuselage",
			"rotation":[
				0.5,
				0.5,
				-0.5,
				0.5
			],
			"scale":[
				1,
				1,
				0.550000011920929
			],
			"translation":[
				0,
				-0.25,
				0
			]
		},
		{
			"mesh":1,
			"name":"REF_Nose",
			"rotation":[
				0.5,
				0.5,
				-0.5,
				0.5
			],
			"scale":[
				1,
				1,
				0.8999999761581421
			],
			"translation":[
				5.25,
				0,
				0
			]
		},
		{
			"mesh":2,
			"name":"REF_Wing_-1",
			"rotation":[
				0,
				0.1736481636762619,
				0,
				0.9848077893257141
			],
			"scale":[
				2.299999952316284,
				0.8500000238418579,
				0.11999999731779099
			],
			"translation":[
				0.5,
				0,
				2.799999952316284
			]
		},
		{
			"mesh":3,
			"name":"REF_Wing_1",
			"rotation":[
				0,
				-0.1736481636762619,
				0,
				0.9848077893257141
			],
			"scale":[
				2.299999952316284,
				0.8500000238418579,
				0.11999999731779099
			],
			"translation":[
				0.5,
				0,
				-2.799999952316284
			]
		},
		{
			"mesh":4,
			"name":"REF_Stab_-1",
			"rotation":[
				-0.06975648552179337,
				0,
				0,
				0.9975641369819641
			],
			"scale":[
				1.2999999523162842,
				1.600000023841858,
				0.10000000149011612
			],
			"translation":[
				-3.200000047683716,
				1.2000000476837158,
				1.7000000476837158
			]
		},
		{
			"mesh":5,
			"name":"REF_Engine_-1",
			"rotation":[
				0,
				0,
				-0.7071068286895752,
				0.7071068286895752
			],
			"scale":[
				1,
				0.8999999761581421,
				1
			],
			"translation":[
				-3,
				-0.25,
				1.600000023841858
			]
		},
		{
			"mesh":6,
			"name":"REF_Stab_1",
			"rotation":[
				-0.06975648552179337,
				0,
				0,
				0.9975641369819641
			],
			"scale":[
				1.2999999523162842,
				1.600000023841858,
				0.10000000149011612
			],
			"translation":[
				-3.200000047683716,
				1.2000000476837158,
				-1.7000000476837158
			]
		},
		{
			"mesh":7,
			"name":"REF_Engine_1",
			"rotation":[
				0,
				0,
				-0.7071068286895752,
				0.7071068286895752
			],
			"scale":[
				1,
				0.8999999761581421,
				1
			],
			"translation":[
				-3,
				-0.25,
				-1.600000023841858
			]
		},
		{
			"mesh":8,
			"name":"REF_VFin",
			"rotation":[
				0.10452848672866821,
				0,
				0,
				0.994521975517273
			],
			"scale":[
				0.20000000298023224,
				0.12000000476837158,
				1.600000023841858
			],
			"translation":[
				4.199999809265137,
				0.3499999940395355,
				0
			]
		},
		{
			"mesh":9,
			"name":"REF_Canopy",
			"scale":[
				1,
				0.6499999761581421,
				0.8999999761581421
			],
			"translation":[
				1.2000000476837158,
				0.550000011920929,
				0
			]
		},
		{
			"mesh":10,
			"name":"REF_Intake_-1",
			"rotation":[
				0,
				0,
				-0.7071068286895752,
				0.7071068286895752
			],
			"scale":[
				1,
				0.75,
				1
			],
			"translation":[
				2,
				-0.10000000149011612,
				0.8500000238418579
			]
		},
		{
			"mesh":11,
			"name":"REF_Intake_1",
			"rotation":[
				0,
				0,
				-0.7071068286895752,
				0.7071068286895752
			],
			"scale":[
				1,
				0.75,
				1
			],
			"translation":[
				2,
				-0.10000000149011612,
				-0.8500000238418579
			]
		},
		{
			"mesh":12,
			"name":"Voxel_Thrust_-1",
			"scale":[
				0.15000000596046448,
				0.3499999940395355,
				0.3499999940395355
			],
			"translation":[
				-4.199999809265137,
				-0.25,
				1.600000023841858
			]
		},
		{
			"mesh":13,
			"name":"Voxel_Thrust_1",
			"scale":[
				0.15000000596046448,
				0.3499999940395355,
				0.3499999940395355
			],
			"translation":[
				-4.199999809265137,
				-0.25,
				-1.600000023841858
			]
		},
		{
			"mesh":14,
			"name":"Voxel_Panel_-2.5",
			"scale":[
				0.029999999329447746,
				0.05000000074505806,
				1.2000000476837158
			],
			"translation":[
				-2.5,
				0.6499999761581421,
				0
			]
		},
		{
			"mesh":15,
			"name":"Voxel_Panel_-1",
			"scale":[
				0.029999999329447746,
				0.05000000074505806,
				1.2000000476837158
			],
			"translation":[
				-1,
				0.6499999761581421,
				0
			]
		},
		{
			"mesh":16,
			"name":"Voxel_Panel_0.5",
			"scale":[
				0.029999999329447746,
				0.05000000074505806,
				1.2000000476837158
			],
			"translation":[
				0.5,
				0.6499999761581421,
				0
			]
		},
		{
			"mesh":17,
			"name":"Voxel_Panel_2",
			"scale":[
				0.029999999329447746,
				0.05000000074505806,
				1.2000000476837158
			],
			"translation":[
				2,
				0.6499999761581421,
				0
			]
		},
		{
			"mesh":18,
			"name":"Voxel_Panel_3.3",
			"scale":[
				0.029999999329447746,
				0.05000000074505806,
				1.2000000476837158
			],
			"translation":[
				3.299999952316284,
				0.6499999761581421,
				0
			]
		},
		{
			"mesh":19,
			"name":"Voxel_Tip_-1",
			"scale":[
				0.20000000298023224,
				0.20000000298023224,
				0.20000000298023224
			],
			"translation":[
				-2.299999952316284,
				0,
				5.300000190734863
			]
		},
		{
			"mesh":20,
			"name":"Voxel_Tip_1",
			"scale":[
				0.20000000298023224,
				0.20000000298023224,
				0.20000000298023224
			],
			"translation":[
				-2.299999952316284,
				0,
				-5.300000190734863
			]
		}
	],
	"materials":[
		{
			"doubleSided":true,
			"name":"Voxel_Blue",
			"pbrMetallicRoughness":{
				"baseColorFactor":[
					0.11999999731779099,
					0.2800000011920929,
					0.7200000286102295,
					1
				],
				"metallicFactor":0.5,
				"roughnessFactor":0.5
			}
		},
		{
			"doubleSided":true,
			"name":"Voxel_White",
			"pbrMetallicRoughness":{
				"baseColorFactor":[
					0.8999999761581421,
					0.9200000166893005,
					0.9399999976158142,
					1
				],
				"metallicFactor":0.20000000298023224,
				"roughnessFactor":0.5
			}
		},
		{
			"doubleSided":true,
			"name":"Voxel_Yellow",
			"pbrMetallicRoughness":{
				"baseColorFactor":[
					0.949999988079071,
					0.7200000286102295,
					0.11999999731779099,
					1
				],
				"metallicFactor":0.5,
				"roughnessFactor":0.4000000059604645
			}
		},
		{
			"doubleSided":true,
			"name":"Cockpit",
			"pbrMetallicRoughness":{
				"baseColorFactor":[
					0.05000000074505806,
					0.07999999821186066,
					0.15000000596046448,
					1
				],
				"metallicFactor":0.8999999761581421,
				"roughnessFactor":0.05000000074505806
			}
		},
		{
			"doubleSided":true,
			"name":"Voxel_Dark",
			"pbrMetallicRoughness":{
				"baseColorFactor":[
					0.15000000596046448,
					0.17000000178813934,
					0.2199999988079071,
					1
				],
				"metallicFactor":0.4000000059604645,
				"roughnessFactor":0.699999988079071
			}
		},
		{
			"doubleSided":true,
			"emissiveFactor":[
				0.15000000596046448,
				0.75,
				1
			],
			"extensions":{
				"KHR_materials_emissive_strength":{
					"emissiveStrength":3
				}
			},
			"name":"Engine_Glow",
			"pbrMetallicRoughness":{
				"baseColorFactor":[
					0,
					0,
					0,
					1
				],
				"metallicFactor":0,
				"roughnessFactor":0.5
			}
		}
	],
	"meshes":[
		{
			"name":"Cylinder",
			"primitives":[
				{
					"attributes":{
						"POSITION":0,
						"NORMAL":1
					},
					"indices":2,
					"material":0
				}
			]
		},
		{
			"name":"Cone",
			"primitives":[
				{
					"attributes":{
						"POSITION":3,
						"NORMAL":4
					},
					"indices":5,
					"material":0
				}
			]
		},
		{
			"name":"Cube.001",
			"primitives":[
				{
					"attributes":{
						"POSITION":6,
						"NORMAL":7
					},
					"indices":8,
					"material":0
				}
			]
		},
		{
			"name":"Cube.002",
			"primitives":[
				{
					"attributes":{
						"POSITION":9,
						"NORMAL":10
					},
					"indices":8,
					"material":0
				}
			]
		},
		{
			"name":"Cube.003",
			"primitives":[
				{
					"attributes":{
						"POSITION":11,
						"NORMAL":12
					},
					"indices":8,
					"material":1
				}
			]
		},
		{
			"name":"Cylinder.001",
			"primitives":[
				{
					"attributes":{
						"POSITION":13,
						"NORMAL":14
					},
					"indices":15,
					"material":1
				}
			]
		},
		{
			"name":"Cube.004",
			"primitives":[
				{
					"attributes":{
						"POSITION":16,
						"NORMAL":17
					},
					"indices":8,
					"material":1
				}
			]
		},
		{
			"name":"Cylinder.002",
			"primitives":[
				{
					"attributes":{
						"POSITION":18,
						"NORMAL":19
					},
					"indices":15,
					"material":1
				}
			]
		},
		{
			"name":"Cube.005",
			"primitives":[
				{
					"attributes":{
						"POSITION":20,
						"NORMAL":21
					},
					"indices":8,
					"material":2
				}
			]
		},
		{
			"name":"Sphere",
			"primitives":[
				{
					"attributes":{
						"POSITION":22,
						"NORMAL":23
					},
					"indices":24,
					"material":3
				}
			]
		},
		{
			"name":"Cylinder.003",
			"primitives":[
				{
					"attributes":{
						"POSITION":25,
						"NORMAL":26
					},
					"indices":27,
					"material":4
				}
			]
		},
		{
			"name":"Cylinder.004",
			"primitives":[
				{
					"attributes":{
						"POSITION":28,
						"NORMAL":29
					},
					"indices":30,
					"material":4
				}
			]
		},
		{
			"name":"Cube.006",
			"primitives":[
				{
					"attributes":{
						"POSITION":31,
						"NORMAL":32,
						"TEXCOORD_0":33
					},
					"indices":34,
					"material":5
				}
			]
		},
		{
			"name":"Cube.007",
			"primitives":[
				{
					"attributes":{
						"POSITION":35,
						"NORMAL":36,
						"TEXCOORD_0":37
					},
					"indices":34,
					"material":5
				}
			]
		},
		{
			"name":"Cube.008",
			"primitives":[
				{
					"attributes":{
						"POSITION":38,
						"NORMAL":39,
						"TEXCOORD_0":40
					},
					"indices":34,
					"material":4
				}
			]
		},
		{
			"name":"Cube.009",
			"primitives":[
				{
					"attributes":{
						"POSITION":41,
						"NORMAL":42,
						"TEXCOORD_0":43
					},
					"indices":34,
					"material":4
				}
			]
		},
		{
			"name":"Cube.010",
			"primitives":[
				{
					"attributes":{
						"POSITION":44,
						"NORMAL":45,
						"TEXCOORD_0":46
					},
					"indices":34,
					"material":4
				}
			]
		},
		{
			"name":"Cube.011",
			"primitives":[
				{
					"attributes":{
						"POSITION":47,
						"NORMAL":48,
						"TEXCOORD_0":49
					},
					"indices":34,
					"material":4
				}
			]
		},
		{
			"name":"Cube.012",
			"primitives":[
				{
					"attributes":{
						"POSITION":50,
						"NORMAL":51,
						"TEXCOORD_0":52
					},
					"indices":34,
					"material":4
				}
			]
		},
		{
			"name":"Cube.013",
			"primitives":[
				{
					"attributes":{
						"POSITION":53,
						"NORMAL":54,
						"TEXCOORD_0":55
					},
					"indices":34,
					"material":2
				}
			]
		},
		{
			"name":"Cube.014",
			"primitives":[
				{
					"attributes":{
						"POSITION":56,
						"NORMAL":57,
						"TEXCOORD_0":58
					},
					"indices":34,
					"material":2
				}
			]
		}
	],
	"accessors":[
		{
			"bufferView":0,
			"componentType":5126,
			"count":3960,
			"max":[
				0.668402910232544,
				3.4635417461395264,
				0.668402910232544
			],
			"min":[
				-0.668402910232544,
				-3.4635417461395264,
				-0.668402910232544
			],
			"type":"VEC3"
		},
		{
			"bufferView":1,
			"componentType":5126,
			"count":3960,
			"type":"VEC3"
		},
		{
			"bufferView":2,
			"componentType":5123,
			"count":16260,
			"type":"SCALAR"
		},
		{
			"bufferView":3,
			"componentType":5126,
			"count":8164,
			"max":[
				0.6987847089767456,
				1.7317708730697632,
				0.6987847089767456
			],
			"min":[
				-0.6987847089767456,
				-1.7317708730697632,
				-0.6987847089767456
			],
			"type":"VEC3"
		},
		{
			"bufferView":4,
			"componentType":5126,
			"count":8164,
			"type":"VEC3"
		},
		{
			"bufferView":5,
			"componentType":5123,
			"count":23988,
			"type":"SCALAR"
		},
		{
			"bufferView":6,
			"componentType":5126,
			"count":20184,
			"max":[
				0.49479174613952637,
				0.49479174613952637,
				0.4947916865348816
			],
			"min":[
				-0.4947916865348816,
				-0.4947916865348816,
				-0.49479174613952637
			],
			"type":"VEC3"
		},
		{
			"bufferView":7,
			"componentType":5126,
			"count":20184,
			"type":"VEC3"
		},
		{
			"bufferView":8,
			"componentType":5123,
			"count":116964,
			"type":"SCALAR"
		},
		{
			"bufferView":9,
			"componentType":5126,
			"count":20184,
			"max":[
				0.49479174613952637,
				0.49479174613952637,
				0.4947916865348816
			],
			"min":[
				-0.4947916865348816,
				-0.4947916865348816,
				-0.49479174613952637
			],
			"type":"VEC3"
		},
		{
			"bufferView":10,
			"componentType":5126,
			"count":20184,
			"type":"VEC3"
		},
		{
			"bufferView":11,
			"componentType":5126,
			"count":20184,
			"max":[
				0.49479174613952637,
				0.49479174613952637,
				0.4947916865348816
			],
			"min":[
				-0.4947916865348816,
				-0.4947916865348816,
				-0.49479174613952637
			],
			"type":"VEC3"
		},
		{
			"bufferView":12,
			"componentType":5126,
			"count":20184,
			"type":"VEC3"
		},
		{
			"bufferView":13,
			"componentType":5126,
			"count":12832,
			"max":[
				0.5381944179534912,
				0.9895834922790527,
				0.538194477558136
			],
			"min":[
				-0.538194477558136,
				-0.9895833730697632,
				-0.5381944179534912
			],
			"type":"VEC3"
		},
		{
			"bufferView":14,
			"componentType":5126,
			"count":12832,
			"type":"VEC3"
		},
		{
			"bufferView":15,
			"componentType":5123,
			"count":51828,
			"type":"SCALAR"
		},
		{
			"bufferView":16,
			"componentType":5126,
			"count":20184,
			"max":[
				0.49479174613952637,
				0.49479174613952637,
				0.4947916865348816
			],
			"min":[
				-0.4947916865348816,
				-0.4947916865348816,
				-0.49479174613952637
			],
			"type":"VEC3"
		},
		{
			"bufferView":17,
			"componentType":5126,
			"count":20184,
			"type":"VEC3"
		},
		{
			"bufferView":18,
			"componentType":5126,
			"count":12832,
			"max":[
				0.5381944179534912,
				0.9895834922790527,
				0.538194477558136
			],
			"min":[
				-0.538194477558136,
				-0.9895833730697632,
				-0.5381944179534912
			],
			"type":"VEC3"
		},
		{
			"bufferView":19,
			"componentType":5126,
			"count":12832,
			"type":"VEC3"
		},
		{
			"bufferView":20,
			"componentType":5126,
			"count":20184,
			"max":[
				0.49479174613952637,
				0.49479174613952637,
				0.4947916865348816
			],
			"min":[
				-0.4947916865348816,
				-0.4947916865348816,
				-0.49479174613952637
			],
			"type":"VEC3"
		},
		{
			"bufferView":21,
			"componentType":5126,
			"count":20184,
			"type":"VEC3"
		},
		{
			"bufferView":22,
			"componentType":5126,
			"count":36960,
			"max":[
				0.5145834684371948,
				0.51458340883255,
				0.51458340883255
			],
			"min":[
				-0.5145832896232605,
				-0.5145833492279053,
				-0.5145833492279053
			],
			"type":"VEC3"
		},
		{
			"bufferView":23,
			"componentType":5126,
			"count":36960,
			"type":"VEC3"
		},
		{
			"bufferView":24,
			"componentType":5123,
			"count":93348,
			"type":"SCALAR"
		},
		{
			"bufferView":25,
			"componentType":5126,
			"count":13952,
			"max":[
				0.34375,
				0.5937501192092896,
				0.3437500298023224
			],
			"min":[
				-0.3437500298023224,
				-0.5937500596046448,
				-0.34375
			],
			"type":"VEC3"
		},
		{
			"bufferView":26,
			"componentType":5126,
			"count":13952,
			"type":"VEC3"
		},
		{
			"bufferView":27,
			"componentType":5123,
			"count":55668,
			"type":"SCALAR"
		},
		{
			"bufferView":28,
			"componentType":5126,
			"count":9280,
			"max":[
				0.34375,
				0.5937501192092896,
				0.3437500298023224
			],
			"min":[
				-0.3437500298023224,
				-0.5937500596046448,
				-0.34375
			],
			"type":"VEC3"
		},
		{
			"bufferView":29,
			"componentType":5126,
			"count":9280,
			"type":"VEC3"
		},
		{
			"bufferView":30,
			"componentType":5123,
			"count":55668,
			"type":"SCALAR"
		},
		{
			"bufferView":31,
			"componentType":5126,
			"count":24,
			"max":[
				0.5,
				0.5,
				0.5
			],
			"min":[
				-0.5,
				-0.5,
				-0.5
			],
			"type":"VEC3"
		},
		{
			"bufferView":32,
			"componentType":5126,
			"count":24,
			"type":"VEC3"
		},
		{
			"bufferView":33,
			"componentType":5126,
			"count":24,
			"type":"VEC2"
		},
		{
			"bufferView":34,
			"componentType":5123,
			"count":36,
			"type":"SCALAR"
		},
		{
			"bufferView":35,
			"componentType":5126,
			"count":24,
			"max":[
				0.5,
				0.5,
				0.5
			],
			"min":[
				-0.5,
				-0.5,
				-0.5
			],
			"type":"VEC3"
		},
		{
			"bufferView":36,
			"componentType":5126,
			"count":24,
			"type":"VEC3"
		},
		{
			"bufferView":37,
			"componentType":5126,
			"count":24,
			"type":"VEC2"
		},
		{
			"bufferView":38,
			"componentType":5126,
			"count":24,
			"max":[
				0.5,
				0.5,
				0.5
			],
			"min":[
				-0.5,
				-0.5,
				-0.5
			],
			"type":"VEC3"
		},
		{
			"bufferView":39,
			"componentType":5126,
			"count":24,
			"type":"VEC3"
		},
		{
			"bufferView":40,
			"componentType":5126,
			"count":24,
			"type":"VEC2"
		},
		{
			"bufferView":41,
			"componentType":5126,
			"count":24,
			"max":[
				0.5,
				0.5,
				0.5
			],
			"min":[
				-0.5,
				-0.5,
				-0.5
			],
			"type":"VEC3"
		},
		{
			"bufferView":42,
			"componentType":5126,
			"count":24,
			"type":"VEC3"
		},
		{
			"bufferView":43,
			"componentType":5126,
			"count":24,
			"type":"VEC2"
		},
		{
			"bufferView":44,
			"componentType":5126,
			"count":24,
			"max":[
				0.5,
				0.5,
				0.5
			],
			"min":[
				-0.5,
				-0.5,
				-0.5
			],
			"type":"VEC3"
		},
		{
			"bufferView":45,
			"componentType":5126,
			"count":24,
			"type":"VEC3"
		},
		{
			"bufferView":46,
			"componentType":5126,
			"count":24,
			"type":"VEC2"
		},
		{
			"bufferView":47,
			"componentType":5126,
			"count":24,
			"max":[
				0.5,
				0.5,
				0.5
			],
			"min":[
				-0.5,
				-0.5,
				-0.5
			],
			"type":"VEC3"
		},
		{
			"bufferView":48,
			"componentType":5126,
			"count":24,
			"type":"VEC3"
		},
		{
			"bufferView":49,
			"componentType":5126,
			"count":24,
			"type":"VEC2"
		},
		{
			"bufferView":50,
			"componentType":5126,
			"count":24,
			"max":[
				0.5,
				0.5,
				0.5
			],
			"min":[
				-0.5,
				-0.5,
				-0.5
			],
			"type":"VEC3"
		},
		{
			"bufferView":51,
			"componentType":5126,
			"count":24,
			"type":"VEC3"
		},
		{
			"bufferView":52,
			"componentType":5126,
			"count":24,
			"type":"VEC2"
		},
		{
			"bufferView":53,
			"componentType":5126,
			"count":24,
			"max":[
				0.5,
				0.5,
				0.5
			],
			"min":[
				-0.5,
				-0.5,
				-0.5
			],
			"type":"VEC3"
		},
		{
			"bufferView":54,
			"componentType":5126,
			"count":24,
			"type":"VEC3"
		},
		{
			"bufferView":55,
			"componentType":5126,
			"count":24,
			"type":"VEC2"
		},
		{
			"bufferView":56,
			"componentType":5126,
			"count":24,
			"max":[
				0.5,
				0.5,
				0.5
			],
			"min":[
				-0.5,
				-0.5,
				-0.5
			],
			"type":"VEC3"
		},
		{
			"bufferView":57,
			"componentType":5126,
			"count":24,
			"type":"VEC3"
		},
		{
			"bufferView":58,
			"componentType":5126,
			"count":24,
			"type":"VEC2"
		}
	],
	"bufferViews":[
		{
			"buffer":0,
			"byteLength":47520,
			"byteOffset":0,
			"target":34962
		},
		{
			"buffer":0,
			"byteLength":47520,
			"byteOffset":47520,
			"target":34962
		},
		{
			"buffer":0,
			"byteLength":32520,
			"byteOffset":95040,
			"target":34963
		},
		{
			"buffer":0,
			"byteLength":97968,
			"byteOffset":127560,
			"target":34962
		},
		{
			"buffer":0,
			"byteLength":97968,
			"byteOffset":225528,
			"target":34962
		},
		{
			"buffer":0,
			"byteLength":47976,
			"byteOffset":323496,
			"target":34963
		},
		{
			"buffer":0,
			"byteLength":242208,
			"byteOffset":371472,
			"target":34962
		},
		{
			"buffer":0,
			"byteLength":242208,
			"byteOffset":613680,
			"target":34962
		},
		{
			"buffer":0,
			"byteLength":233928,
			"byteOffset":855888,
			"target":34963
		},
		{
			"buffer":0,
			"byteLength":242208,
			"byteOffset":1089816,
			"target":34962
		},
		{
			"buffer":0,
			"byteLength":242208,
			"byteOffset":1332024,
			"target":34962
		},
		{
			"buffer":0,
			"byteLength":242208,
			"byteOffset":1574232,
			"target":34962
		},
		{
			"buffer":0,
			"byteLength":242208,
			"byteOffset":1816440,
			"target":34962
		},
		{
			"buffer":0,
			"byteLength":153984,
			"byteOffset":2058648,
			"target":34962
		},
		{
			"buffer":0,
			"byteLength":153984,
			"byteOffset":2212632,
			"target":34962
		},
		{
			"buffer":0,
			"byteLength":103656,
			"byteOffset":2366616,
			"target":34963
		},
		{
			"buffer":0,
			"byteLength":242208,
			"byteOffset":2470272,
			"target":34962
		},
		{
			"buffer":0,
			"byteLength":242208,
			"byteOffset":2712480,
			"target":34962
		},
		{
			"buffer":0,
			"byteLength":153984,
			"byteOffset":2954688,
			"target":34962
		},
		{
			"buffer":0,
			"byteLength":153984,
			"byteOffset":3108672,
			"target":34962
		},
		{
			"buffer":0,
			"byteLength":242208,
			"byteOffset":3262656,
			"target":34962
		},
		{
			"buffer":0,
			"byteLength":242208,
			"byteOffset":3504864,
			"target":34962
		},
		{
			"buffer":0,
			"byteLength":443520,
			"byteOffset":3747072,
			"target":34962
		},
		{
			"buffer":0,
			"byteLength":443520,
			"byteOffset":4190592,
			"target":34962
		},
		{
			"buffer":0,
			"byteLength":186696,
			"byteOffset":4634112,
			"target":34963
		},
		{
			"buffer":0,
			"byteLength":167424,
			"byteOffset":4820808,
			"target":34962
		},
		{
			"buffer":0,
			"byteLength":167424,
			"byteOffset":4988232,
			"target":34962
		},
		{
			"buffer":0,
			"byteLength":111336,
			"byteOffset":5155656,
			"target":34963
		},
		{
			"buffer":0,
			"byteLength":111360,
			"byteOffset":5266992,
			"target":34962
		},
		{
			"buffer":0,
			"byteLength":111360,
			"byteOffset":5378352,
			"target":34962
		},
		{
			"buffer":0,
			"byteLength":111336,
			"byteOffset":5489712,
			"target":34963
		},
		{
			"buffer":0,
			"byteLength":288,
			"byteOffset":5601048,
			"target":34962
		},
		{
			"buffer":0,
			"byteLength":288,
			"byteOffset":5601336,
			"target":34962
		},
		{
			"buffer":0,
			"byteLength":192,
			"byteOffset":5601624,
			"target":34962
		},
		{
			"buffer":0,
			"byteLength":72,
			"byteOffset":5601816,
			"target":34963
		},
		{
			"buffer":0,
			"byteLength":288,
			"byteOffset":5601888,
			"target":34962
		},
		{
			"buffer":0,
			"byteLength":288,
			"byteOffset":5602176,
			"target":34962
		},
		{
			"buffer":0,
			"byteLength":192,
			"byteOffset":5602464,
			"target":34962
		},
		{
			"buffer":0,
			"byteLength":288,
			"byteOffset":5602656,
			"target":34962
		},
		{
			"buffer":0,
			"byteLength":288,
			"byteOffset":5602944,
			"target":34962
		},
		{
			"buffer":0,
			"byteLength":192,
			"byteOffset":5603232,
			"target":34962
		},
		{
			"buffer":0,
			"byteLength":288,
			"byteOffset":5603424,
			"target":34962
		},
		{
			"buffer":0,
			"byteLength":288,
			"byteOffset":5603712,
			"target":34962
		},
		{
			"buffer":0,
			"byteLength":192,
			"byteOffset":5604000,
			"target":34962
		},
		{
			"buffer":0,
			"byteLength":288,
			"byteOffset":5604192,
			"target":34962
		},
		{
			"buffer":0,
			"byteLength":288,
			"byteOffset":5604480,
			"target":34962
		},
		{
			"buffer":0,
			"byteLength":192,
			"byteOffset":5604768,
			"target":34962
		},
		{
			"buffer":0,
			"byteLength":288,
			"byteOffset":5604960,
			"target":34962
		},
		{
			"buffer":0,
			"byteLength":288,
			"byteOffset":5605248,
			"target":34962
		},
		{
			"buffer":0,
			"byteLength":192,
			"byteOffset":5605536,
			"target":34962
		},
		{
			"buffer":0,
			"byteLength":288,
			"byteOffset":5605728,
			"target":34962
		},
		{
			"buffer":0,
			"byteLength":288,
			"byteOffset":5606016,
			"target":34962
		},
		{
			"buffer":0,
			"byteLength":192,
			"byteOffset":5606304,
			"target":34962
		},
		{
			"buffer":0,
			"byteLength":288,
			"byteOffset":5606496,
			"target":34962
		},
		{
			"buffer":0,
			"byteLength":288,
			"byteOffset":5606784,
			"target":34962
		},
		{
			"buffer":0,
			"byteLength":192,
			"byteOffset":5607072,
			"target":34962
		},
		{
			"buffer":0,
			"byteLength":288,
			"byteOffset":5607264,
			"target":34962
		},
		{
			"buffer":0,
			"byteLength":288,
			"byteOffset":5607552,
			"target":34962
		},
		{
			"buffer":0,
			"byteLength":192,
			"byteOffset":5607840,
			"target":34962
		}
	],
	"buffers":[
		{
			"byteLength":5608032,
			"uri":"starfighter_v6_voxel.bin"
		}
	]
}
